<?xml version="1.0" encoding="UTF-8" standalone="no"?>
<!DOCTYPE svg PUBLIC "-//W3C//DTD SVG 1.1//EN" "http://www.w3.org/Graphics/SVG/1.1/DTD/svg11.dtd">
<svg width="100%" height="100%" viewBox="0 0 134 11" version="1.1" xmlns="http://www.w3.org/2000/svg" xmlns:xlink="http://www.w3.org/1999/xlink" xml:space="preserve" xmlns:serif="http://www.serif.com/" style="fill-rule:evenodd;clip-rule:evenodd;stroke-linejoin:round;stroke-miterlimit:2;">
    <g transform="matrix(1,0,0,1,-211.145,-136.575)">
        <g transform="matrix(1.1869,0,0,1.1869,-37.506,-26.8957)">
            <path d="M288.442,138.848C289.071,138.848 289.618,138.974 290.083,139.226C290.548,139.478 290.905,139.83 291.154,140.283C291.404,140.736 291.528,141.26 291.528,141.854C291.528,142.328 291.455,142.782 291.307,143.217C291.16,143.652 290.946,144.005 290.665,144.275C290.385,144.545 290.058,144.68 289.684,144.68C289.4,144.68 289.182,144.605 289.029,144.455C288.876,144.305 288.788,144.101 288.765,143.843C288.59,144.101 288.367,144.305 288.098,144.455C287.829,144.605 287.544,144.68 287.244,144.68C286.813,144.68 286.474,144.54 286.228,144.261C285.981,143.982 285.858,143.606 285.858,143.132C285.858,142.682 285.947,142.262 286.126,141.872C286.304,141.482 286.552,141.168 286.869,140.931C287.187,140.694 287.547,140.576 287.949,140.576C288.488,140.576 288.85,140.792 289.037,141.224L289.131,140.666L289.803,140.666L289.377,143.267C289.36,143.381 289.352,143.486 289.352,143.582C289.352,143.942 289.502,144.122 289.803,144.122C290.029,144.122 290.226,144.008 290.393,143.78C290.561,143.552 290.687,143.265 290.772,142.92C290.857,142.575 290.899,142.235 290.899,141.899C290.899,141.113 290.677,140.504 290.232,140.072C289.787,139.64 289.159,139.424 288.349,139.424C287.674,139.424 287.066,139.596 286.525,139.941C285.984,140.286 285.56,140.759 285.254,141.359C284.948,141.959 284.795,142.622 284.795,143.348C284.789,144.14 285.013,144.75 285.467,145.179C285.92,145.608 286.549,145.823 287.354,145.823C287.887,145.823 288.357,145.721 288.765,145.517L288.867,146.075C288.363,146.297 287.807,146.408 287.201,146.408C286.595,146.408 286.06,146.286 285.598,146.043C285.136,145.8 284.779,145.452 284.527,144.999C284.275,144.546 284.149,144.02 284.149,143.42C284.149,142.574 284.333,141.801 284.701,141.102C285.07,140.403 285.581,139.853 286.236,139.451C286.891,139.049 287.626,138.848 288.442,138.848ZM249.155,142.133C249.155,141.629 249.252,141.186 249.444,140.805C249.637,140.424 249.902,140.129 250.239,139.919C250.576,139.709 250.952,139.604 251.366,139.604C251.774,139.604 252.128,139.697 252.428,139.883C252.729,140.069 252.953,140.303 253.1,140.585L253.1,139.685L253.882,139.685L253.882,144.617L253.1,144.617L253.1,143.699C252.947,143.987 252.719,144.225 252.416,144.414C252.112,144.603 251.76,144.698 251.357,144.698C250.943,144.698 250.569,144.59 250.235,144.374C249.901,144.158 249.637,143.855 249.444,143.465C249.252,143.075 249.155,142.631 249.155,142.133ZM231.828,141.962C231.828,142.118 231.82,142.283 231.803,142.457L228.079,142.457C228.107,142.943 228.265,143.322 228.551,143.595C228.837,143.868 229.184,144.005 229.592,144.005C229.927,144.005 230.206,143.922 230.43,143.757C230.654,143.592 230.811,143.372 230.902,143.096L231.735,143.096C231.61,143.57 231.361,143.955 230.987,144.252C230.613,144.549 230.148,144.698 229.592,144.698C229.15,144.698 228.755,144.593 228.406,144.383C228.058,144.173 227.784,143.874 227.586,143.487C227.388,143.1 227.288,142.652 227.288,142.142C227.288,141.632 227.385,141.185 227.578,140.801C227.77,140.417 228.041,140.121 228.389,139.914C228.738,139.707 229.139,139.604 229.592,139.604C230.035,139.604 230.426,139.706 230.766,139.91C231.106,140.114 231.368,140.394 231.552,140.751C231.736,141.108 231.828,141.512 231.828,141.962ZM267.655,142.133C267.655,141.629 267.752,141.186 267.944,140.805C268.137,140.424 268.402,140.129 268.739,139.919C269.076,139.709 269.452,139.604 269.866,139.604C270.274,139.604 270.628,139.697 270.928,139.883C271.229,140.069 271.453,140.303 271.6,140.585L271.6,139.685L272.382,139.685L272.382,144.617L271.6,144.617L271.6,143.699C271.447,143.987 271.219,144.225 270.916,144.414C270.612,144.603 270.26,144.698 269.857,144.698C269.443,144.698 269.069,144.59 268.735,144.374C268.401,144.158 268.137,143.855 267.944,143.465C267.752,143.075 267.655,142.631 267.655,142.133ZM299.469,142.133C299.469,141.629 299.566,141.186 299.758,140.805C299.951,140.424 300.216,140.129 300.553,139.919C300.89,139.709 301.266,139.604 301.68,139.604C302.088,139.604 302.442,139.697 302.742,139.883C303.043,140.069 303.267,140.303 303.414,140.585L303.414,139.685L304.196,139.685L304.196,144.617L303.414,144.617L303.414,143.699C303.261,143.987 303.033,144.225 302.73,144.414C302.426,144.603 302.074,144.698 301.671,144.698C301.257,144.698 300.883,144.59 300.549,144.374C300.214,144.158 299.951,143.855 299.758,143.465C299.566,143.075 299.469,142.631 299.469,142.133ZM232.551,142.133C232.551,141.629 232.647,141.186 232.84,140.805C233.033,140.424 233.298,140.129 233.635,139.919C233.972,139.709 234.351,139.604 234.77,139.604C235.133,139.604 235.47,139.692 235.782,139.869C236.094,140.046 236.332,140.279 236.496,140.567L236.496,137.957L237.278,137.957L237.278,144.617L236.496,144.617L236.496,143.69C236.343,143.984 236.116,144.225 235.816,144.414C235.515,144.603 235.164,144.698 234.762,144.698C234.348,144.698 233.972,144.59 233.635,144.374C233.298,144.158 233.033,143.855 232.84,143.465C232.647,143.075 232.551,142.631 232.551,142.133ZM240.611,144.698C240.174,144.698 239.779,144.593 239.425,144.383C239.071,144.173 238.793,143.874 238.592,143.487C238.39,143.1 238.29,142.652 238.29,142.142C238.29,141.638 238.393,141.192 238.6,140.805C238.807,140.418 239.089,140.121 239.446,139.914C239.803,139.707 240.203,139.604 240.645,139.604C241.087,139.604 241.487,139.707 241.844,139.914C242.201,140.121 242.483,140.417 242.69,140.801C242.896,141.185 243,141.632 243,142.142C243,142.652 242.894,143.1 242.681,143.487C242.468,143.874 242.181,144.173 241.818,144.383C241.455,144.593 241.053,144.698 240.611,144.698ZM283.18,141.962C283.18,142.118 283.171,142.283 283.154,142.457L279.43,142.457C279.459,142.943 279.616,143.322 279.902,143.595C280.188,143.868 280.536,144.005 280.944,144.005C281.278,144.005 281.557,143.922 281.781,143.757C282.005,143.592 282.162,143.372 282.253,143.096L283.086,143.096C282.961,143.57 282.712,143.955 282.338,144.252C281.964,144.549 281.499,144.698 280.944,144.698C280.502,144.698 280.106,144.593 279.758,144.383C279.409,144.173 279.136,143.874 278.937,143.487C278.739,143.1 278.64,142.652 278.64,142.142C278.64,141.632 278.736,141.185 278.929,140.801C279.121,140.417 279.392,140.121 279.741,139.914C280.089,139.707 280.49,139.604 280.944,139.604C281.386,139.604 281.777,139.706 282.117,139.91C282.457,140.114 282.719,140.394 282.903,140.751C283.088,141.108 283.18,141.512 283.18,141.962ZM258.057,142.133C258.057,141.629 258.153,141.186 258.346,140.805C258.538,140.424 258.803,140.129 259.141,139.919C259.478,139.709 259.856,139.604 260.276,139.604C260.638,139.604 260.976,139.692 261.287,139.869C261.599,140.046 261.837,140.279 262.001,140.567L262.001,137.957L262.784,137.957L262.784,144.617L262.001,144.617L262.001,143.69C261.848,143.984 261.622,144.225 261.321,144.414C261.021,144.603 260.67,144.698 260.267,144.698C259.853,144.698 259.478,144.59 259.141,144.374C258.803,144.158 258.538,143.855 258.346,143.465C258.153,143.075 258.057,142.631 258.057,142.133ZM248.143,139.685L248.143,144.617L247.37,144.617L247.37,143.888C247.222,144.14 247.017,144.336 246.753,144.477C246.49,144.618 246.199,144.689 245.882,144.689C245.519,144.689 245.193,144.609 244.904,144.45C244.615,144.291 244.387,144.053 244.22,143.735C244.053,143.417 243.969,143.03 243.969,142.574L243.969,139.685L244.734,139.685L244.734,142.466C244.734,142.952 244.85,143.325 245.083,143.586C245.315,143.847 245.633,143.978 246.035,143.978C246.449,143.978 246.775,143.843 247.013,143.573C247.251,143.303 247.37,142.91 247.37,142.394L247.37,139.685L248.143,139.685ZM264.331,144.671C264.184,144.671 264.059,144.617 263.957,144.509C263.855,144.401 263.804,144.269 263.804,144.113C263.804,143.957 263.855,143.825 263.957,143.717C264.059,143.609 264.184,143.555 264.331,143.555C264.473,143.555 264.593,143.609 264.692,143.717C264.792,143.825 264.841,143.957 264.841,144.113C264.841,144.269 264.792,144.401 264.692,144.509C264.593,144.617 264.473,144.671 264.331,144.671ZM315.546,144.671C315.399,144.671 315.274,144.617 315.172,144.509C315.07,144.401 315.019,144.269 315.019,144.113C315.019,143.957 315.07,143.825 315.172,143.717C315.274,143.609 315.399,143.555 315.546,143.555C315.688,143.555 315.808,143.609 315.907,143.717C316.007,143.825 316.056,143.957 316.056,144.113C316.056,144.269 316.007,144.401 315.907,144.509C315.808,144.617 315.688,144.671 315.546,144.671ZM320.639,140.486C320.775,140.204 320.969,139.985 321.221,139.829C321.473,139.673 321.781,139.595 322.144,139.595L322.144,140.441L321.94,140.441C321.072,140.441 320.639,140.939 320.639,141.935L320.639,144.617L319.865,144.617L319.865,139.685L320.639,139.685L320.639,140.486ZM308.158,143.942L310.445,143.942L310.445,144.617L307.274,144.617L307.274,143.942L309.535,140.351L307.291,140.351L307.291,139.685L310.428,139.685L310.428,140.351L308.158,143.942ZM312.018,143.942L314.305,143.942L314.305,144.617L311.134,144.617L311.134,143.942L313.395,140.351L311.151,140.351L311.151,139.685L314.288,139.685L314.288,140.351L312.018,143.942ZM318.972,140.36L317.995,140.36L317.995,144.617L317.221,144.617L317.221,140.36L316.617,140.36L316.617,139.685L317.221,139.685L317.221,139.334C317.221,138.782 317.356,138.378 317.625,138.123C317.894,137.868 318.326,137.741 318.921,137.741L318.921,138.425C318.581,138.425 318.342,138.495 318.203,138.636C318.064,138.777 317.995,139.01 317.995,139.334L317.995,139.685L318.972,139.685L318.972,140.36ZM299.002,139.685L297.548,144.617L296.749,144.617L295.626,140.702L294.504,144.617L293.705,144.617L292.243,139.685L293.033,139.685L294.104,143.825L295.261,139.685L296.051,139.685L297.182,143.834L298.236,139.685L299.002,139.685ZM276.54,140.486C276.676,140.204 276.87,139.985 277.122,139.829C277.374,139.673 277.682,139.595 278.045,139.595L278.045,140.441L277.84,140.441C276.973,140.441 276.54,140.939 276.54,141.935L276.54,144.617L275.766,144.617L275.766,139.685L276.54,139.685L276.54,140.486ZM255.957,140.486C256.093,140.204 256.287,139.985 256.539,139.829C256.791,139.673 257.099,139.595 257.461,139.595L257.461,140.441L257.257,140.441C256.39,140.441 255.957,140.939 255.957,141.935L255.957,144.617L255.183,144.617L255.183,139.685L255.957,139.685L255.957,140.486ZM306.271,139.685L306.271,144.617L305.497,144.617L305.497,139.685L306.271,139.685ZM274.457,139.685L274.457,144.617L273.683,144.617L273.683,139.685L274.457,139.685ZM266.635,137.957L266.635,144.617L265.861,144.617L265.861,137.957L266.635,137.957ZM287.473,144.041C287.728,144.041 287.963,143.961 288.179,143.802C288.394,143.643 288.564,143.427 288.689,143.154C288.814,142.881 288.876,142.583 288.876,142.259C288.876,141.947 288.795,141.693 288.634,141.498C288.472,141.303 288.244,141.206 287.949,141.206C287.677,141.206 287.438,141.291 287.231,141.462C287.024,141.633 286.864,141.858 286.75,142.137C286.637,142.416 286.58,142.706 286.58,143.006C286.58,143.324 286.657,143.576 286.81,143.762C286.963,143.948 287.184,144.041 287.473,144.041ZM271.6,142.142C271.6,141.77 271.529,141.446 271.388,141.17C271.246,140.894 271.055,140.682 270.814,140.535C270.573,140.388 270.308,140.315 270.019,140.315C269.73,140.315 269.466,140.387 269.228,140.531C268.99,140.675 268.8,140.885 268.658,141.161C268.517,141.437 268.446,141.761 268.446,142.133C268.446,142.511 268.517,142.839 268.658,143.118C268.8,143.397 268.99,143.61 269.228,143.757C269.466,143.904 269.73,143.978 270.019,143.978C270.308,143.978 270.573,143.904 270.814,143.757C271.055,143.61 271.246,143.397 271.388,143.118C271.529,142.839 271.6,142.514 271.6,142.142ZM253.1,142.142C253.1,141.77 253.029,141.446 252.888,141.17C252.746,140.894 252.555,140.682 252.314,140.535C252.073,140.388 251.808,140.315 251.519,140.315C251.23,140.315 250.966,140.387 250.728,140.531C250.49,140.675 250.3,140.885 250.158,141.161C250.017,141.437 249.946,141.761 249.946,142.133C249.946,142.511 250.017,142.839 250.158,143.118C250.3,143.397 250.49,143.61 250.728,143.757C250.966,143.904 251.23,143.978 251.519,143.978C251.808,143.978 252.073,143.904 252.314,143.757C252.555,143.61 252.746,143.397 252.888,143.118C253.029,142.839 253.1,142.514 253.1,142.142ZM303.414,142.142C303.414,141.77 303.343,141.446 303.201,141.17C303.06,140.894 302.868,140.682 302.628,140.535C302.387,140.388 302.122,140.315 301.833,140.315C301.544,140.315 301.28,140.387 301.042,140.531C300.804,140.675 300.614,140.885 300.472,141.161C300.331,141.437 300.26,141.761 300.26,142.133C300.26,142.511 300.331,142.839 300.472,143.118C300.614,143.397 300.804,143.61 301.042,143.757C301.28,143.904 301.544,143.978 301.833,143.978C302.122,143.978 302.387,143.904 302.628,143.757C302.868,143.61 303.06,143.397 303.201,143.118C303.343,142.839 303.414,142.514 303.414,142.142ZM240.611,143.978C240.889,143.978 241.149,143.909 241.393,143.771C241.637,143.633 241.834,143.426 241.984,143.15C242.134,142.874 242.209,142.538 242.209,142.142C242.209,141.746 242.136,141.41 241.988,141.134C241.841,140.858 241.648,140.652 241.41,140.517C241.172,140.382 240.914,140.315 240.636,140.315C240.353,140.315 240.094,140.382 239.858,140.517C239.623,140.652 239.435,140.858 239.293,141.134C239.151,141.41 239.081,141.746 239.081,142.142C239.081,142.544 239.15,142.883 239.289,143.159C239.428,143.435 239.613,143.64 239.846,143.775C240.078,143.91 240.333,143.978 240.611,143.978ZM236.496,142.142C236.496,141.77 236.425,141.446 236.283,141.17C236.142,140.894 235.95,140.682 235.71,140.535C235.469,140.388 235.204,140.315 234.915,140.315C234.626,140.315 234.362,140.387 234.124,140.531C233.886,140.675 233.696,140.885 233.554,141.161C233.413,141.437 233.342,141.761 233.342,142.133C233.342,142.511 233.413,142.839 233.554,143.118C233.696,143.397 233.886,143.61 234.124,143.757C234.362,143.904 234.626,143.978 234.915,143.978C235.204,143.978 235.469,143.904 235.71,143.757C235.95,143.61 236.142,143.397 236.283,143.118C236.425,142.839 236.496,142.514 236.496,142.142ZM262.001,142.142C262.001,141.77 261.931,141.446 261.789,141.17C261.647,140.894 261.456,140.682 261.215,140.535C260.974,140.388 260.709,140.315 260.42,140.315C260.131,140.315 259.868,140.387 259.629,140.531C259.391,140.675 259.202,140.885 259.06,141.161C258.918,141.437 258.847,141.761 258.847,142.133C258.847,142.511 258.918,142.839 259.06,143.118C259.202,143.397 259.391,143.61 259.629,143.757C259.868,143.904 260.131,143.978 260.42,143.978C260.709,143.978 260.974,143.904 261.215,143.757C261.456,143.61 261.647,143.397 261.789,143.118C261.931,142.839 262.001,142.514 262.001,142.142ZM282.38,141.791C282.38,141.479 282.315,141.21 282.185,140.985C282.055,140.76 281.877,140.589 281.654,140.472C281.43,140.355 281.182,140.297 280.91,140.297C280.519,140.297 280.186,140.429 279.911,140.693C279.636,140.957 279.479,141.323 279.439,141.791L282.38,141.791ZM231.029,141.791C231.029,141.479 230.964,141.21 230.834,140.985C230.703,140.76 230.526,140.589 230.302,140.472C230.078,140.355 229.831,140.297 229.558,140.297C229.167,140.297 228.834,140.429 228.559,140.693C228.285,140.957 228.127,141.323 228.088,141.791L231.029,141.791ZM305.897,138.884C305.749,138.884 305.624,138.83 305.522,138.722C305.42,138.614 305.369,138.482 305.369,138.326C305.369,138.17 305.42,138.038 305.522,137.93C305.624,137.822 305.749,137.768 305.897,137.768C306.038,137.768 306.159,137.822 306.258,137.93C306.357,138.038 306.407,138.17 306.407,138.326C306.407,138.482 306.357,138.614 306.258,138.722C306.159,138.83 306.038,138.884 305.897,138.884ZM274.083,138.884C273.935,138.884 273.811,138.83 273.709,138.722C273.607,138.614 273.556,138.482 273.556,138.326C273.556,138.17 273.607,138.038 273.709,137.93C273.811,137.822 273.935,137.768 274.083,137.768C274.224,137.768 274.345,137.822 274.444,137.93C274.543,138.038 274.593,138.17 274.593,138.326C274.593,138.482 274.543,138.614 274.444,138.722C274.345,138.83 274.224,138.884 274.083,138.884Z" style="fill:white;fill-rule:nonzero;"/>
        </g>
        <g transform="matrix(1.1869,0,0,1.1869,223.262,138.128)">
            <path d="M0,6.073L-3.037,3.036L0,-0.001L0,6.073ZM-9.099,6.521L-6.045,3.468L-4.975,4.529C-4.852,4.651 -4.651,4.651 -4.528,4.528L-3.485,3.484L-0.448,6.521L-9.099,6.521ZM-9.547,6.073L-9.547,-0.004L-6.495,3.022L-9.547,6.073ZM-0.448,-0.449L-4.753,3.856L-9.096,-0.449L-0.448,-0.449ZM-0.317,-1.082L-9.23,-1.082C-9.753,-1.082 -10.18,-0.656 -10.18,-0.132L-10.18,6.204C-10.18,6.727 -9.755,7.155 -9.23,7.155L-0.317,7.155C0.206,7.155 0.634,6.73 0.634,6.204L0.634,-0.132C0.634,-0.654 0.208,-1.082 -0.317,-1.082" style="fill:white;fill-rule:nonzero;"/>
        </g>
    </g>
</svg>
