<?xml version="1.0" encoding="UTF-8" standalone="no"?>
<!DOCTYPE svg PUBLIC "-//W3C//DTD SVG 1.1//EN" "http://www.w3.org/Graphics/SVG/1.1/DTD/svg11.dtd">
<svg width="100%" height="100%" viewBox="0 0 16 16" version="1.1" xmlns="http://www.w3.org/2000/svg" xmlns:xlink="http://www.w3.org/1999/xlink" xml:space="preserve" xmlns:serif="http://www.serif.com/" style="fill-rule:evenodd;clip-rule:evenodd;stroke-linejoin:round;stroke-miterlimit:2;">
    <g transform="matrix(1,0,0,1,-482.746,-153.633)">
        <g transform="matrix(0,-1,-1,0,490.292,153.634)">
            <path d="M-7.553,-7.553C-11.726,-7.553 -15.107,-4.172 -15.107,0C-15.107,4.172 -11.726,7.553 -7.553,7.553C-3.382,7.553 0,4.172 0,0C0,-4.172 -3.382,-7.553 -7.553,-7.553" style="fill-rule:nonzero;"/>
        </g>
        <g transform="matrix(1,0,0,1,492.433,165.414)">
            <path d="M0,-8.462L-1.249,-8.49C-1.74,-8.499 -2.214,-8.316 -2.568,-7.968C-2.924,-7.621 -3.119,-7.157 -3.119,-6.66L-3.119,-5.476L-4.279,-5.476C-4.327,-5.476 -4.366,-5.437 -4.366,-5.389L-4.366,-3.901C-4.366,-3.854 -4.327,-3.815 -4.279,-3.815L-3.119,-3.815L-3.119,-0.049C-3.119,-0.002 -3.081,0.037 -3.033,0.037L-1.496,0.037C-1.449,0.037 -1.41,-0.002 -1.41,-0.049L-1.41,-3.815L-0.24,-3.815C-0.197,-3.815 -0.16,-3.847 -0.154,-3.89L0.039,-5.378C0.042,-5.403 0.034,-5.428 0.019,-5.446C0.002,-5.465 -0.022,-5.476 -0.047,-5.476L-1.41,-5.476L-1.41,-6.228C-1.411,-6.232 -1.441,-6.595 -1.252,-6.802C-1.164,-6.899 -1.044,-6.946 -0.885,-6.946L-0.002,-6.946C0.046,-6.946 0.085,-6.984 0.085,-7.032L0.085,-8.376C0.085,-8.422 0.047,-8.461 0,-8.462" style="fill:white;fill-rule:nonzero;"/>
        </g>
    </g>
</svg>
