<?xml version="1.0" encoding="UTF-8" standalone="no"?>
<!DOCTYPE svg PUBLIC "-//W3C//DTD SVG 1.1//EN" "http://www.w3.org/Graphics/SVG/1.1/DTD/svg11.dtd">
<svg width="100%" height="100%" viewBox="0 0 16 16" version="1.1" xmlns="http://www.w3.org/2000/svg" xmlns:xlink="http://www.w3.org/1999/xlink" xml:space="preserve" xmlns:serif="http://www.serif.com/" style="fill-rule:evenodd;clip-rule:evenodd;stroke-linejoin:round;stroke-miterlimit:2;">
    <g transform="matrix(1.00967,0,0,1.00967,-556.18,-155.191)">
        <g transform="matrix(0,-1,-1,0,558.329,153.742)">
            <path d="M-7.445,-7.445C-11.557,-7.445 -14.89,-4.112 -14.89,-0.001C-14.89,4.112 -11.557,7.445 -7.445,7.445C-3.334,7.445 0,4.112 0,-0.001C0,-4.112 -3.334,-7.445 -7.445,-7.445" style="fill-rule:nonzero;"/>
        </g>
        <path d="M562.32,158.428C562.215,158.147 562.049,157.892 561.835,157.682C561.624,157.468 561.37,157.302 561.089,157.196C560.821,157.092 560.515,157.021 560.067,157.001C559.617,156.98 559.474,156.975 558.33,156.975C557.186,156.975 557.042,156.98 556.593,157C556.145,157.021 555.839,157.092 555.571,157.196C555.29,157.302 555.035,157.468 554.825,157.682C554.611,157.892 554.445,158.147 554.339,158.428C554.235,158.696 554.163,159.002 554.144,159.451C554.122,159.9 554.118,160.043 554.118,161.187C554.118,162.331 554.122,162.474 554.144,162.924C554.164,163.372 554.236,163.678 554.339,163.946C554.445,164.227 554.611,164.482 554.825,164.692C555.035,164.906 555.29,165.072 555.571,165.178C555.839,165.282 556.145,165.353 556.593,165.373C557.042,165.394 557.186,165.399 558.33,165.399C559.474,165.399 559.617,165.394 560.067,165.373C560.515,165.353 560.821,165.282 561.089,165.178C561.654,164.959 562.102,164.512 562.32,163.946C562.425,163.678 562.496,163.372 562.517,162.924C562.537,162.474 562.542,162.331 562.542,161.187C562.542,160.043 562.537,159.9 562.517,159.451C562.496,159.002 562.425,158.696 562.32,158.428ZM561.758,162.889C561.739,163.3 561.671,163.523 561.613,163.671C561.472,164.038 561.181,164.329 560.814,164.471C560.665,164.528 560.443,164.597 560.031,164.616C559.588,164.636 559.454,164.64 558.329,164.64C557.205,164.64 557.071,164.636 556.628,164.616C556.217,164.597 555.994,164.528 555.846,164.471C555.662,164.403 555.497,164.295 555.362,164.156C555.222,164.019 555.113,163.854 555.046,163.671C554.988,163.523 554.92,163.3 554.902,162.889C554.881,162.445 554.877,162.312 554.877,161.187C554.877,160.062 554.881,159.929 554.902,159.485C554.92,159.075 554.988,158.851 555.046,158.703C555.113,158.52 555.222,158.354 555.362,158.219C555.497,158.079 555.663,157.971 555.846,157.904C555.994,157.846 556.217,157.777 556.628,157.759C557.071,157.738 557.205,157.734 558.33,157.734C559.454,157.734 559.588,157.739 560.032,157.759C560.443,157.777 560.665,157.846 560.814,157.904C560.997,157.971 561.162,158.079 561.298,158.219C561.438,158.354 561.546,158.52 561.613,158.703C561.671,158.851 561.739,159.075 561.758,159.485C561.779,159.929 561.782,160.062 561.782,161.187C561.782,162.312 561.779,162.445 561.758,162.889ZM558.33,159.024C557.135,159.024 556.167,159.992 556.167,161.187C556.167,162.382 557.135,163.35 558.33,163.35C559.524,163.35 560.492,162.382 560.492,161.187C560.492,159.992 559.524,159.024 558.33,159.024ZM558.33,162.591C557.555,162.591 556.926,161.962 556.926,161.187C556.926,160.411 557.555,159.783 558.33,159.783C559.105,159.783 559.733,160.411 559.733,161.187C559.733,161.962 559.105,162.591 558.33,162.591ZM560.578,158.434C560.299,158.434 560.072,158.66 560.072,158.939C560.072,159.218 560.299,159.445 560.578,159.445C560.857,159.445 561.083,159.218 561.084,158.939C561.084,158.66 560.857,158.434 560.578,158.434Z" style="fill:white;fill-rule:nonzero;"/>
    </g>
</svg>
