<?xml version="1.0" encoding="UTF-8" standalone="no"?>
<!DOCTYPE svg PUBLIC "-//W3C//DTD SVG 1.1//EN" "http://www.w3.org/Graphics/SVG/1.1/DTD/svg11.dtd">
<svg width="100%" height="100%" viewBox="0 0 16 16" version="1.1" xmlns="http://www.w3.org/2000/svg" xmlns:xlink="http://www.w3.org/1999/xlink" xml:space="preserve" xmlns:serif="http://www.serif.com/" style="fill-rule:evenodd;clip-rule:evenodd;stroke-linejoin:round;stroke-miterlimit:2;">
    <g transform="matrix(1.01457,0,0,1.01457,-512.994,-155.982)">
        <g transform="matrix(0,-1,-1,0,513.064,153.742)">
            <path d="M-7.445,-7.445C-11.557,-7.445 -14.89,-4.112 -14.89,-0.001C-14.89,4.112 -11.557,7.445 -7.445,7.445C-3.334,7.445 0,4.112 0,-0.001C0,-4.112 -3.334,-7.445 -7.445,-7.445" style="fill-rule:nonzero;"/>
        </g>
        <path d="M515.461,159.789C514.127,159.414 513.424,160.312 513.424,160.312L513.248,159.665L511.936,159.665L511.936,164.712L513.471,164.712L513.471,161.718C513.471,161.27 513.833,160.908 514.28,160.908C514.728,160.908 515.09,161.27 515.09,161.718L515.09,164.712L516.624,164.712L516.624,162.188C516.624,162.188 516.794,160.164 515.461,159.789ZM510.996,159.805L509.565,159.805L509.565,164.711L510.996,164.711L510.996,159.805ZM510.281,157.663C509.847,157.663 509.497,158.014 509.497,158.447C509.497,158.88 509.847,159.231 510.281,159.231C510.714,159.231 511.064,158.88 511.064,158.447C511.064,158.014 510.714,157.663 510.281,157.663Z" style="fill:white;"/>
    </g>
</svg>
