<?xml version="1.0" encoding="UTF-8" standalone="no"?>
<!DOCTYPE svg PUBLIC "-//W3C//DTD SVG 1.1//EN" "http://www.w3.org/Graphics/SVG/1.1/DTD/svg11.dtd">
<svg width="100%" height="100%" viewBox="0 0 150 48" version="1.1" xmlns="http://www.w3.org/2000/svg" xmlns:xlink="http://www.w3.org/1999/xlink" xml:space="preserve" xmlns:serif="http://www.serif.com/" style="fill-rule:evenodd;clip-rule:evenodd;stroke-linejoin:round;stroke-miterlimit:2;">
    <g transform="matrix(0.272169,0,0,0.272143,-154.289,-48.8254)">
        <g transform="matrix(1.98444,0,0,1.98444,341.003,-20.2975)">
            <text x="207.408px" y="181.245px" style="font-family:'Poppins-Regular', 'Poppins';font-size:20.927px;fill:rgb(215,178,61);">COMMUNICATION</text>
        </g>
        <g transform="matrix(1,0,0,1,469.821,-586.37)">
            <path d="M301.019,801.207L301.019,804.113C298.262,804.374 296.372,804.765 295.347,805.286C294.323,805.808 293.81,807 293.81,808.863C293.81,809.347 293.866,809.916 293.978,810.568C294.09,811.22 294.257,811.9 294.481,812.607L307.726,852.621L308.676,852.621L321.809,819.09C321.883,818.904 321.352,817.209 320.216,814.005C319.08,810.8 318.288,808.826 317.841,808.081C316.984,806.739 316.043,805.789 315.019,805.231C313.994,804.672 312.141,804.299 309.458,804.113L309.458,801.207L345.225,801.207L345.225,804.113C341.946,804.374 339.757,804.728 338.658,805.175C337.559,805.622 337.009,806.628 337.009,808.193C337.009,808.565 337.131,809.282 337.373,810.344C337.615,811.406 338.034,812.868 338.63,814.731L350.534,851.559L351.316,851.559L363.778,813.949C364.002,813.278 364.188,812.561 364.337,811.797C364.486,811.033 364.561,810.186 364.561,809.254C364.561,807.131 363.76,805.715 362.158,805.007C361.189,804.56 359.345,804.262 356.625,804.113L356.625,801.207L377.582,801.207L377.582,804.113C375.831,804.374 374.471,804.821 373.502,805.454C371.826,806.609 370.522,808.602 369.591,811.434L346.678,880.452L343.66,880.452L324.435,826.802L323.653,826.802L302.696,880.452L299.511,880.452L275.312,811.434C274.269,808.416 273.226,806.497 272.183,805.678C271.139,804.858 269.519,804.299 267.321,804.001L267.321,801.207L301.019,801.207ZM576.579,876.708L620.337,805.175C611.693,805.175 606.543,805.259 604.885,805.426C603.227,805.594 601.709,805.827 600.33,806.125C595.487,807.093 591.687,809.403 588.93,813.055C587.29,815.253 585.427,819.165 583.341,824.79L580.156,824.79L582.559,801.207L642.579,801.207L642.579,803.051L599.101,874.584C614.637,874.584 625.115,873.392 630.536,871.007C635.957,868.623 640.102,861.954 642.97,851.001L645.988,851.001L642.97,878.552L576.579,878.552L576.579,876.708ZM454.414,875.646C457.655,875.571 459.984,875.18 461.4,874.472C463.709,873.28 464.864,870.989 464.864,867.598L464.864,812.216C464.864,808.826 463.765,806.553 461.567,805.398C460.226,804.69 457.842,804.262 454.414,804.113L454.414,801.207L494.428,801.207L494.428,804.113C490.851,804.262 488.392,804.672 487.051,805.342C484.815,806.497 483.698,808.789 483.698,812.216L483.698,867.598C483.698,870.803 484.592,872.945 486.38,874.025C488.169,875.106 490.851,875.646 494.428,875.646L494.428,878.552L454.414,878.552L454.414,875.646ZM371.983,875.646C374.74,875.46 376.957,874.212 378.634,871.902C379.714,870.449 381.26,867.245 383.272,862.289L408.7,799.642L411.885,799.642L437.425,859.775C440.294,866.518 442.436,870.868 443.852,872.824C445.267,874.78 447.279,875.72 449.887,875.646L449.887,878.552L412.835,878.552L412.835,875.646C416.561,875.497 419.011,875.18 420.184,874.696C421.358,874.212 421.945,872.982 421.945,871.007C421.945,870.113 421.647,868.753 421.05,866.928C420.678,865.847 420.175,864.543 419.542,863.016L416.636,856.086L390.928,856.086C389.252,860.631 388.171,863.593 387.687,864.972C386.681,867.915 386.178,870.057 386.178,871.399C386.178,873.038 387.277,874.23 389.475,874.975C390.779,875.385 392.735,875.609 395.343,875.646L395.343,878.552L371.983,878.552L371.983,875.646ZM500.24,876.708L543.998,805.175C535.354,805.175 530.204,805.259 528.546,805.426C526.888,805.594 525.369,805.827 523.991,806.125C519.148,807.093 515.347,809.403 512.59,813.055C510.951,815.253 509.088,819.165 507.002,824.79L503.816,824.79L506.219,801.207L566.24,801.207L566.24,803.051L522.761,874.584C538.298,874.584 548.776,873.392 554.197,871.007C559.618,868.623 563.763,861.954 566.631,851.001L569.649,851.001L566.631,878.552L500.24,878.552L500.24,876.708ZM414.903,851.559L403.95,825.07L403,825.07L392.661,851.559L414.903,851.559Z"/>
        </g>
        <g transform="matrix(0.965926,-0.258819,0.258819,0.965926,219.465,90.7775)">
            <path d="M356.373,213.926C394.74,203.645 434.236,226.448 444.517,264.816C454.797,303.183 431.994,342.679 393.627,352.959C355.26,363.24 315.764,340.437 305.483,302.069C295.203,263.702 318.006,224.206 356.373,213.926ZM340.664,337.419C349.21,342.852 359.022,346.261 369.306,347.185C367.79,344.48 365.498,343.294 362.054,343.002C353.729,342.297 346.626,340.365 340.664,337.419ZM351.704,289.685C361.671,301.733 387.161,297.258 395.256,309.29C404.775,323.438 403.01,341.034 379.826,347.018C389.158,332.805 386.281,323.08 374.458,312.657C367.495,306.519 352.922,301.677 351.704,289.685ZM312.395,296.663C312.337,294.167 312.435,291.631 312.689,289.054C316.526,280.045 322.871,272.662 331.082,266.486C329.004,281.629 332.458,309.161 346.061,316.619C360.668,324.628 378.238,331.974 374.63,344.077C372.368,336.481 366.594,335.936 359.058,335.592C337.103,334.588 319.561,314.742 320.951,295.886C317.852,297.422 315.795,300.262 314.37,303.892C313.94,302.616 313.549,301.32 313.196,300.003C312.898,298.891 312.631,297.778 312.395,296.663ZM382.939,219.942L388.952,226.983C388.952,226.983 390.214,226.85 391.17,226.75C391.848,226.679 392.531,226.844 393.101,227.219C395.113,228.54 400.064,231.791 402.589,233.449C403.57,234.093 404.251,235.104 404.481,236.255C405.129,239.496 406.425,245.982 406.425,245.982C406.425,245.982 406.856,246.291 407.194,246.533C407.448,246.715 407.616,246.994 407.659,247.304C407.856,248.725 408.418,252.781 408.418,252.781C408.418,252.781 422.11,260.414 423.902,261.305C425.694,262.197 427.652,263.992 428.46,265.25C429.267,266.507 429.41,268.396 429.41,268.396L427.69,271.527C427.69,271.527 428.811,277.894 428.901,279.07C428.991,280.247 428.825,281.782 428.45,283.011C428.076,284.24 426.74,285.307 426.74,285.307C426.74,285.307 429.049,287.617 429.308,288.261C429.567,288.905 429.354,289.826 429.354,289.826L426.912,301.909C426.912,301.909 426.669,302.758 425.639,304.118C425.045,304.901 423.923,305.448 423.087,305.791C422.826,305.901 422.528,305.885 422.28,305.748C422.032,305.611 421.86,305.368 421.813,305.088C421.675,304.261 421.505,303.239 421.505,303.239C420.173,302.47 418.793,302.247 417.363,302.597C416.744,303.223 416.484,303.978 416.749,304.92C421.591,317.265 417.132,329.387 407.444,338.606C431.631,324.386 444.415,295.286 436.804,266.882C429.871,241.006 407.99,223.093 382.939,219.942ZM397.465,302.846C401.526,307.569 403.94,312.681 404.85,318.148C405.76,323.615 405.165,329.437 403.206,335.581C417.968,326.818 416.671,302.345 397.465,302.846ZM338.564,290.404C343.447,304.378 353.815,306.825 362.431,310.524C371.513,314.422 380.723,320.181 379.95,335.2C372.862,324.338 366.803,322.509 356.569,317.451C345.933,312.194 338.272,301.962 338.564,290.404ZM321.657,318.8C319.896,315.39 318.537,311.702 317.561,307.79C317.132,308.435 316.839,309.054 316.638,309.69C318.076,312.895 319.76,315.939 321.657,318.8ZM405.878,295.155C412.155,293.48 417.937,291.123 422.406,286.963C422.406,286.963 423.705,288.403 424.539,289.328C424.967,289.803 425.13,290.461 424.972,291.08C424.346,293.538 422.774,299.711 422.774,299.711C420.872,298.607 418.866,297.796 416.69,297.469C411.041,299.267 406.797,299.299 405.878,295.155ZM345.38,271.58C338.755,267.681 333.127,263.278 333.331,255.926C342.98,252.008 353.054,251.038 363.528,252.837L359.518,250.102C365.139,247.974 371.049,246.925 377.094,246.378C374.61,244.621 372.394,242.86 370.336,241.097C376.357,241.092 382.335,242.29 388.284,244.281L386.877,241.719C391.841,243.44 396.231,245.556 399.453,248.472L400.084,254.885L419.876,264.801C418.616,266.277 416.752,265.661 414.888,266.419C413.888,266.825 413.738,269.062 412.944,269.791C412.102,270.563 410.737,269.876 409.325,270.139C410.924,271.316 412.84,272.102 414.858,272.763C417.622,273.614 419.235,275.275 419.602,277.809C419.629,279.94 419.306,282 418.697,284.001C416.806,286.722 414.22,287.954 411.077,287.992C406.519,287.634 402.205,288.08 398.269,289.772C398.911,288.486 400.071,287.271 402.185,286.187L400.803,285.067C397.962,285.489 396.366,286.482 395.167,287.657C395.453,286.057 396.545,284.681 398.903,283.657L398.174,281.218C396.437,281.434 395.226,282.102 394.286,283.004C394.623,281.492 395.894,280.186 397.986,279.063L400.019,274.01C389.872,274.561 390.205,285.184 376.914,282.096C378.414,284.282 380.773,285.67 384.01,286.242C371.603,286.94 361.96,284.272 360.562,271.559C355.826,270.181 353.611,267.341 354.755,262.555L348.566,264.167C349.298,261.975 351.203,260.037 354.396,258.378C349.541,257.427 344.735,258.074 339.954,259.542C339.853,262.71 342.199,266.96 345.38,271.58ZM423.152,273.788C422.071,274.853 421.629,276.405 421.581,278.164C421.533,279.923 421.879,281.891 422.373,283.788C424.574,284.223 424.774,280.773 423.152,273.788ZM314.056,263.963C317.717,261.723 321.975,260.751 326.943,261.284C319.792,266.359 314.567,272.848 311.066,280.603C311.32,274.891 312.343,269.299 314.056,263.963ZM380.328,249.839C383.396,249.421 386.636,250.467 390.193,252.605L390.686,253.659L392.093,254.049L391.403,254.651C391.95,255.741 392.045,256.877 391.79,258.048L394.074,258.08L401.131,263.775L391.998,259.448C388.533,260.18 385.08,260.622 381.649,260.566L380.747,261.557C379.825,258.527 382.238,255.976 386.743,253.725C384.888,251.958 382.716,250.718 380.328,249.839ZM319.961,250.838C326.606,248.02 333.006,246.851 338.944,248.795C335.477,249.655 331.988,250.486 328.452,251.256C328.483,253.406 328.892,255.486 329.567,257.519C323.389,257.279 318.8,258.159 315.495,259.944C316.743,256.793 318.237,253.747 319.961,250.838ZM334.582,233.83C346.635,232.963 357.151,236.529 366.277,244.104L352.337,247.54L346.758,247.205C339.283,243.177 330.659,243.501 320.362,250.17C324.117,244.001 328.912,238.458 334.582,233.83ZM390.919,232.837L392.332,232.565C394.551,234.389 396.989,236.028 399.506,237.6L400.719,243.595L392.863,239.34C392.409,237.121 391.73,234.961 390.919,232.837ZM339.661,229.626C347.442,230.295 354.983,232.55 362.322,236.125C368.045,236.081 373.486,236.679 378.643,237.927C373.498,231.557 366.304,226.516 358.063,222.152C351.238,223.432 345.16,226.02 339.661,229.626ZM371.738,225.709C376.002,229.064 379.786,232.854 382.764,237.376L387.35,237.69C385.905,232.76 383.507,228.395 380.091,224.632C377.23,224.702 374.449,225.076 371.738,225.709ZM365.424,220.174L366.039,220.568C368.456,220.017 370.824,219.652 373.143,219.474C370.584,219.549 368.007,219.78 365.424,220.174Z" style="fill:rgb(215,178,61);"/>
        </g>
    </g>
</svg>
