<?xml version="1.0" encoding="UTF-8" standalone="no"?>
<!DOCTYPE svg PUBLIC "-//W3C//DTD SVG 1.1//EN" "http://www.w3.org/Graphics/SVG/1.1/DTD/svg11.dtd">
<svg width="100%" height="100%" viewBox="0 0 84 15" version="1.1" xmlns="http://www.w3.org/2000/svg" xmlns:xlink="http://www.w3.org/1999/xlink" xml:space="preserve" xmlns:serif="http://www.serif.com/" style="fill-rule:evenodd;clip-rule:evenodd;stroke-linejoin:round;stroke-miterlimit:2;">
    <g transform="matrix(1.00024,0,0,1,-210.613,-154.676)">
        <g transform="matrix(1.1869,0,0,1.1869,-37.506,-26.3094)">
            <path d="M256.918,159.352C256.918,158.848 257.014,158.406 257.207,158.025C257.4,157.644 257.665,157.348 258.002,157.138C258.339,156.928 258.715,156.823 259.128,156.823C259.537,156.823 259.891,156.916 260.191,157.102C260.492,157.288 260.716,157.522 260.863,157.804L260.863,156.904L261.645,156.904L261.645,161.836L260.863,161.836L260.863,160.918C260.71,161.206 260.482,161.445 260.178,161.634C259.875,161.823 259.522,161.917 259.12,161.917C258.706,161.917 258.332,161.809 257.998,161.593C257.663,161.377 257.4,161.074 257.207,160.684C257.014,160.294 256.918,159.85 256.918,159.352ZM248.714,161.89C248.566,161.89 248.442,161.836 248.34,161.728C248.238,161.62 248.187,161.488 248.187,161.332C248.187,161.176 248.238,161.044 248.34,160.936C248.442,160.828 248.566,160.774 248.714,160.774C248.855,160.774 248.976,160.828 249.075,160.936C249.174,161.044 249.224,161.176 249.224,161.332C249.224,161.488 249.174,161.62 249.075,161.728C248.976,161.836 248.855,161.89 248.714,161.89ZM272.995,161.89C272.848,161.89 272.723,161.836 272.621,161.728C272.519,161.62 272.468,161.488 272.468,161.332C272.468,161.176 272.519,161.044 272.621,160.936C272.723,160.828 272.848,160.774 272.995,160.774C273.137,160.774 273.257,160.828 273.357,160.936C273.456,161.044 273.505,161.176 273.505,161.332C273.505,161.488 273.456,161.62 273.357,161.728C273.257,161.836 273.137,161.89 272.995,161.89ZM233.784,156.904L232.33,161.836L231.531,161.836L230.409,157.921L229.287,161.836L228.488,161.836L227.025,156.904L227.816,156.904L228.887,161.044L230.043,156.904L230.834,156.904L231.965,161.053L233.019,156.904L233.784,156.904ZM263.72,156.904L263.72,161.836L262.946,161.836L262.946,156.904L263.72,156.904ZM278.088,157.705C278.224,157.423 278.418,157.204 278.67,157.048C278.923,156.892 279.23,156.814 279.593,156.814L279.593,157.66L279.389,157.66C278.522,157.66 278.088,158.158 278.088,159.154L278.088,161.836L277.314,161.836L277.314,156.904L278.088,156.904L278.088,157.705ZM265.607,161.161L267.894,161.161L267.894,161.836L264.723,161.836L264.723,161.161L266.984,157.57L264.74,157.57L264.74,156.904L267.877,156.904L267.877,157.57L265.607,161.161ZM269.467,161.161L271.754,161.161L271.754,161.836L268.583,161.836L268.583,161.161L270.844,157.57L268.6,157.57L268.6,156.904L271.737,156.904L271.737,157.57L269.467,161.161ZM276.422,157.579L275.444,157.579L275.444,161.836L274.67,161.836L274.67,157.579L274.067,157.579L274.067,156.904L274.67,156.904L274.67,156.553C274.67,156.001 274.805,155.598 275.074,155.343C275.343,155.088 275.775,154.96 276.371,154.96L276.371,155.644C276.03,155.644 275.791,155.715 275.652,155.856C275.513,155.997 275.444,156.229 275.444,156.553L275.444,156.904L276.422,156.904L276.422,157.579ZM240.747,156.904L239.293,161.836L238.494,161.836L237.372,157.921L236.25,161.836L235.451,161.836L233.988,156.904L234.779,156.904L235.85,161.044L237.007,156.904L237.797,156.904L238.928,161.053L239.982,156.904L240.747,156.904ZM247.71,156.904L246.257,161.836L245.457,161.836L244.335,157.921L243.213,161.836L242.414,161.836L240.951,156.904L241.742,156.904L242.813,161.044L243.97,156.904L244.76,156.904L245.891,161.053L246.945,156.904L247.71,156.904ZM256.45,156.904L254.997,161.836L254.197,161.836L253.075,157.921L251.953,161.836L251.154,161.836L249.691,156.904L250.482,156.904L251.553,161.044L252.71,156.904L253.5,156.904L254.631,161.053L255.685,156.904L256.45,156.904ZM260.863,159.361C260.863,158.989 260.792,158.665 260.65,158.389C260.509,158.113 260.317,157.902 260.076,157.755C259.836,157.608 259.571,157.534 259.282,157.534C258.992,157.534 258.729,157.606 258.491,157.75C258.253,157.894 258.063,158.104 257.921,158.38C257.78,158.656 257.709,158.98 257.709,159.352C257.709,159.73 257.78,160.059 257.921,160.338C258.063,160.617 258.253,160.83 258.491,160.977C258.729,161.124 258.992,161.197 259.282,161.197C259.571,161.197 259.836,161.124 260.076,160.977C260.317,160.83 260.509,160.617 260.65,160.338C260.792,160.059 260.863,159.733 260.863,159.361ZM263.345,156.103C263.198,156.103 263.073,156.049 262.971,155.941C262.869,155.833 262.818,155.701 262.818,155.545C262.818,155.389 262.869,155.257 262.971,155.149C263.073,155.041 263.198,154.987 263.345,154.987C263.487,154.987 263.608,155.041 263.707,155.149C263.806,155.257 263.856,155.389 263.856,155.545C263.856,155.701 263.806,155.833 263.707,155.941C263.608,156.049 263.487,156.103 263.345,156.103Z" style="fill:white;fill-rule:nonzero;"/>
        </g>
        <g transform="matrix(1.1869,0,0,1.1869,221.65,162.189)">
            <path d="M0,-0.755C-0.029,-1.57 -0.151,-2.355 -0.357,-3.068C-0.045,-3.256 0.251,-3.475 0.528,-3.723C1.241,-2.885 1.664,-1.854 1.742,-0.755L0,-0.755ZM-0.61,3.046C-0.398,3.183 -0.195,3.337 -0.002,3.507C-0.407,3.863 -0.857,4.15 -1.341,4.362C-1.039,3.965 -0.798,3.512 -0.61,3.046M-6.22,3.046C-6.032,3.512 -5.791,3.965 -5.489,4.362C-5.972,4.15 -6.423,3.863 -6.828,3.507C-6.635,3.337 -6.432,3.183 -6.22,3.046M-6.22,-3.801C-6.432,-3.939 -6.635,-4.092 -6.828,-4.262C-6.423,-4.618 -5.972,-4.905 -5.489,-5.117C-5.791,-4.72 -6.032,-4.267 -6.22,-3.801M-1.341,-5.117C-0.857,-4.905 -0.407,-4.618 -0.002,-4.262C-0.195,-4.092 -0.398,-3.939 -0.61,-3.801C-0.798,-4.267 -1.039,-4.72 -1.341,-5.117M-3.037,-2.989L-3.037,-5.494C-2.188,-5.249 -1.597,-4.26 -1.277,-3.435C-1.828,-3.185 -2.421,-3.033 -3.037,-2.989M-3.037,-0.755L-3.037,-2.233C-2.34,-2.276 -1.667,-2.44 -1.042,-2.713C-0.879,-2.107 -0.782,-1.445 -0.755,-0.755L-3.037,-0.755ZM-3.037,1.478L-3.037,-0L-0.755,-0C-0.782,0.69 -0.879,1.352 -1.042,1.958C-1.667,1.684 -2.34,1.521 -3.037,1.478M-3.037,2.235C-2.421,2.279 -1.828,2.431 -1.277,2.681C-1.597,3.505 -2.188,4.494 -3.037,4.739L-3.037,2.235ZM-3.792,2.235L-3.792,4.739C-4.642,4.494 -5.232,3.505 -5.553,2.681C-5.002,2.431 -4.408,2.279 -3.792,2.235M-3.792,-0L-3.792,1.478C-4.489,1.521 -5.162,1.684 -5.788,1.958C-5.95,1.352 -6.048,0.69 -6.074,-0L-3.792,-0ZM-3.792,-2.233L-3.792,-0.755L-6.074,-0.755C-6.048,-1.445 -5.95,-2.107 -5.788,-2.713C-5.162,-2.44 -4.489,-2.276 -3.792,-2.233M-3.792,-2.989C-4.408,-3.033 -5.002,-3.185 -5.553,-3.435C-5.232,-4.26 -4.643,-5.249 -3.792,-5.494L-3.792,-2.989ZM-7.357,-3.723C-7.081,-3.476 -6.785,-3.256 -6.472,-3.068C-6.679,-2.355 -6.801,-1.57 -6.83,-0.755L-8.572,-0.755C-8.493,-1.854 -8.071,-2.885 -7.357,-3.723M-8.572,-0L-6.83,-0C-6.801,0.815 -6.679,1.6 -6.472,2.312C-6.785,2.501 -7.081,2.721 -7.357,2.968C-8.071,2.13 -8.493,1.099 -8.572,-0M0.528,2.968C0.251,2.721 -0.045,2.501 -0.357,2.312C-0.151,1.6 -0.029,0.815 0,-0L1.742,-0C1.664,1.099 1.241,2.13 0.528,2.968M0.775,-4.568C-1.541,-6.883 -5.289,-6.884 -7.605,-4.568C-9.921,-2.252 -9.921,1.496 -7.605,3.813C-5.29,6.129 -1.541,6.129 0.775,3.813C3.091,1.497 3.092,-2.252 0.775,-4.568" style="fill:white;fill-rule:nonzero;"/>
        </g>
    </g>
</svg>
