<?xml version="1.0" encoding="UTF-8" standalone="no"?>
<!DOCTYPE svg PUBLIC "-//W3C//DTD SVG 1.1//EN" "http://www.w3.org/Graphics/SVG/1.1/DTD/svg11.dtd">
<svg width="100%" height="100%" viewBox="0 0 102 12" version="1.1" xmlns="http://www.w3.org/2000/svg" xmlns:xlink="http://www.w3.org/1999/xlink" xml:space="preserve" xmlns:serif="http://www.serif.com/" style="fill-rule:evenodd;clip-rule:evenodd;stroke-linejoin:round;stroke-miterlimit:2;">
    <g transform="matrix(0.999858,0,0,1,-211.671,-115.065)">
        <g transform="matrix(1.1869,0,0,1.1869,-37.506,-26.0624)">
            <path d="M236.207,122.188C236.082,121.522 235.694,121.189 235.042,121.189C234.538,121.189 234.161,121.394 233.911,121.805C233.662,122.216 233.54,122.893 233.546,123.835C233.676,123.523 233.893,123.278 234.196,123.101C234.499,122.924 234.838,122.836 235.212,122.836C235.796,122.836 236.262,123.028 236.611,123.412C236.959,123.796 237.134,124.327 237.134,125.005C237.134,125.413 237.058,125.779 236.908,126.103C236.758,126.427 236.531,126.685 236.228,126.877C235.925,127.069 235.558,127.165 235.127,127.165C234.543,127.165 234.087,127.027 233.758,126.751C233.43,126.475 233.2,126.094 233.07,125.608C232.939,125.122 232.874,124.522 232.874,123.808C232.874,121.606 233.6,120.505 235.051,120.505C235.606,120.505 236.043,120.664 236.36,120.982C236.677,121.3 236.864,121.702 236.921,122.188L236.207,122.188ZM262.554,125.401C262.61,125.743 262.742,126.007 262.949,126.193C263.156,126.379 263.435,126.472 263.786,126.472C264.257,126.472 264.604,126.277 264.828,125.887C265.052,125.497 265.158,124.84 265.147,123.916C265.028,124.186 264.829,124.397 264.552,124.55C264.274,124.703 263.965,124.78 263.625,124.78C263.245,124.78 262.906,124.697 262.609,124.532C262.311,124.367 262.077,124.126 261.907,123.808C261.737,123.49 261.652,123.106 261.652,122.656C261.652,122.014 261.828,121.496 262.18,121.103C262.531,120.71 263.03,120.514 263.676,120.514C264.469,120.514 265.026,120.787 265.346,121.333C265.667,121.879 265.827,122.692 265.827,123.772C265.827,124.528 265.763,125.152 265.635,125.644C265.508,126.136 265.293,126.511 264.989,126.769C264.686,127.027 264.271,127.156 263.744,127.156C263.166,127.156 262.715,126.991 262.392,126.661C262.069,126.331 261.885,125.911 261.839,125.401L262.554,125.401ZM272.398,125.401C272.455,125.743 272.587,126.007 272.794,126.193C273.001,126.379 273.28,126.472 273.631,126.472C274.102,126.472 274.449,126.277 274.673,125.887C274.897,125.497 275.003,124.84 274.992,123.916C274.872,124.186 274.674,124.397 274.396,124.55C274.119,124.703 273.81,124.78 273.47,124.78C273.09,124.78 272.751,124.697 272.454,124.532C272.156,124.367 271.922,124.126 271.752,123.808C271.582,123.49 271.497,123.106 271.497,122.656C271.497,122.014 271.673,121.496 272.024,121.103C272.376,120.71 272.875,120.514 273.521,120.514C274.314,120.514 274.871,120.787 275.191,121.333C275.512,121.879 275.672,122.692 275.672,123.772C275.672,124.528 275.608,125.152 275.48,125.644C275.353,126.136 275.137,126.511 274.834,126.769C274.531,127.027 274.116,127.156 273.589,127.156C273.011,127.156 272.56,126.991 272.237,126.661C271.914,126.331 271.73,125.911 271.684,125.401L272.398,125.401ZM227.45,123.826C227.45,122.794 227.609,121.988 227.926,121.409C228.244,120.83 228.799,120.541 229.592,120.541C230.38,120.541 230.933,120.83 231.25,121.409C231.568,121.988 231.726,122.794 231.726,123.826C231.726,124.876 231.568,125.692 231.25,126.274C230.933,126.856 230.38,127.147 229.592,127.147C228.799,127.147 228.244,126.856 227.926,126.274C227.609,125.692 227.45,124.876 227.45,123.826ZM295.243,121.279L292.879,127.147L292.097,127.147L294.494,121.36L291.213,121.36L291.213,120.658L295.243,120.658L295.243,121.279ZM251.331,121.279L248.968,127.147L248.186,127.147L250.583,121.36L247.302,121.36L247.302,120.658L251.331,120.658L251.331,121.279ZM276.751,123.826C276.751,122.794 276.91,121.988 277.228,121.409C277.545,120.83 278.1,120.541 278.894,120.541C279.682,120.541 280.234,120.83 280.552,121.409C280.869,121.988 281.028,122.794 281.028,123.826C281.028,124.876 280.869,125.692 280.552,126.274C280.234,126.856 279.682,127.147 278.894,127.147C278.1,127.147 277.545,126.856 277.228,126.274C276.91,125.692 276.751,124.876 276.751,123.826ZM256.585,126.49C257.305,125.878 257.869,125.375 258.277,124.982C258.685,124.589 259.03,124.178 259.31,123.749C259.591,123.32 259.731,122.899 259.731,122.485C259.731,122.095 259.642,121.787 259.463,121.562C259.285,121.337 258.997,121.225 258.6,121.225C258.215,121.225 257.916,121.352 257.703,121.607C257.491,121.862 257.376,122.203 257.359,122.629L256.611,122.629C256.633,121.957 256.826,121.438 257.189,121.072C257.552,120.706 258.019,120.523 258.592,120.523C259.176,120.523 259.639,120.694 259.982,121.036C260.325,121.378 260.496,121.849 260.496,122.449C260.496,122.947 260.356,123.431 260.075,123.902C259.795,124.373 259.476,124.787 259.119,125.144C258.762,125.501 258.306,125.917 257.75,126.391L260.675,126.391L260.675,127.075L256.585,127.075L256.585,126.49ZM286.486,126.49C287.206,125.878 287.77,125.375 288.178,124.982C288.586,124.589 288.93,124.178 289.211,123.749C289.491,123.32 289.631,122.899 289.631,122.485C289.631,122.095 289.542,121.787 289.364,121.562C289.185,121.337 288.897,121.225 288.501,121.225C288.115,121.225 287.816,121.352 287.604,121.607C287.391,121.862 287.276,122.203 287.259,122.629L286.511,122.629C286.534,121.957 286.727,121.438 287.089,121.072C287.452,120.706 287.92,120.523 288.492,120.523C289.076,120.523 289.539,120.694 289.882,121.036C290.225,121.378 290.397,121.849 290.397,122.449C290.397,122.947 290.256,123.431 289.976,123.902C289.695,124.373 289.376,124.787 289.019,125.144C288.662,125.501 288.206,125.917 287.651,126.391L290.575,126.391L290.575,127.075L286.486,127.075L286.486,126.49ZM242.575,126.49C243.294,125.878 243.858,125.375 244.266,124.982C244.674,124.589 245.019,124.178 245.299,123.749C245.58,123.32 245.72,122.899 245.72,122.485C245.72,122.095 245.631,121.787 245.452,121.562C245.274,121.337 244.986,121.225 244.589,121.225C244.204,121.225 243.905,121.352 243.693,121.607C243.48,121.862 243.365,122.203 243.348,122.629L242.6,122.629C242.623,121.957 242.815,121.438 243.178,121.072C243.541,120.706 244.008,120.523 244.581,120.523C245.165,120.523 245.628,120.694 245.971,121.036C246.314,121.378 246.485,121.849 246.485,122.449C246.485,122.947 246.345,123.431 246.065,123.902C245.784,124.373 245.465,124.787 245.108,125.144C244.751,125.501 244.295,125.917 243.739,126.391L246.664,126.391L246.664,127.075L242.575,127.075L242.575,126.49ZM235.051,123.529C234.807,123.529 234.577,123.581 234.362,123.686C234.147,123.791 233.972,123.95 233.839,124.163C233.706,124.376 233.639,124.636 233.639,124.942C233.639,125.398 233.764,125.768 234.013,126.053C234.263,126.338 234.62,126.481 235.085,126.481C235.481,126.481 235.797,126.35 236.033,126.089C236.268,125.828 236.385,125.476 236.385,125.032C236.385,124.564 236.272,124.196 236.045,123.929C235.819,123.662 235.487,123.529 235.051,123.529ZM230.961,123.826C230.961,123.304 230.929,122.861 230.863,122.498C230.798,122.135 230.665,121.843 230.464,121.621C230.263,121.399 229.972,121.288 229.592,121.288C229.207,121.288 228.914,121.399 228.713,121.621C228.511,121.843 228.378,122.135 228.313,122.498C228.248,122.861 228.215,123.304 228.215,123.826C228.215,124.366 228.248,124.819 228.313,125.185C228.378,125.551 228.511,125.845 228.713,126.067C228.914,126.289 229.207,126.4 229.592,126.4C229.972,126.4 230.263,126.289 230.464,126.067C230.665,125.845 230.798,125.551 230.863,125.185C230.929,124.819 230.961,124.366 230.961,123.826ZM280.263,123.826C280.263,123.304 280.23,122.861 280.165,122.498C280.1,122.135 279.967,121.843 279.765,121.621C279.564,121.399 279.274,121.288 278.894,121.288C278.508,121.288 278.215,121.399 278.014,121.621C277.813,121.843 277.68,122.135 277.614,122.498C277.549,122.861 277.517,123.304 277.517,123.826C277.517,124.366 277.549,124.819 277.614,125.185C277.68,125.551 277.813,125.845 278.014,126.067C278.215,126.289 278.508,126.4 278.894,126.4C279.274,126.4 279.564,126.289 279.765,126.067C279.967,125.845 280.1,125.551 280.165,125.185C280.23,124.819 280.263,124.366 280.263,123.826ZM263.752,124.087C264.132,124.087 264.444,123.962 264.688,123.713C264.931,123.464 265.053,123.127 265.053,122.701C265.053,122.251 264.934,121.888 264.696,121.612C264.458,121.336 264.124,121.198 263.693,121.198C263.296,121.198 262.98,121.33 262.745,121.594C262.51,121.858 262.392,122.206 262.392,122.638C262.392,123.076 262.508,123.427 262.741,123.691C262.973,123.955 263.31,124.087 263.752,124.087ZM273.597,124.087C273.977,124.087 274.289,123.962 274.532,123.713C274.776,123.464 274.898,123.127 274.898,122.701C274.898,122.251 274.779,121.888 274.541,121.612C274.303,121.336 273.968,121.198 273.538,121.198C273.141,121.198 272.825,121.33 272.59,121.594C272.355,121.858 272.237,122.206 272.237,122.638C272.237,123.076 272.353,123.427 272.586,123.691C272.818,123.955 273.155,124.087 273.597,124.087Z" style="fill:white;fill-rule:nonzero;"/>
        </g>
        <g transform="matrix(1.1869,0,0,1.1869,-32.0746,-26.7195)">
            <path d="M212.117,129.316C211.45,129.316 210.877,129.169 210.321,128.948C209.577,128.652 208.912,128.225 208.306,127.706C207.349,126.886 206.57,125.923 205.991,124.802C205.769,124.373 205.58,123.93 205.471,123.456C205.274,122.603 205.435,121.828 205.976,121.139C206.282,120.751 206.684,120.515 207.176,120.454C207.321,120.435 207.473,120.446 207.619,120.465C207.835,120.494 207.97,120.628 208.031,120.836C208.098,121.063 208.169,121.29 208.233,121.518C208.335,121.881 208.437,122.245 208.53,122.61C208.593,122.857 208.597,123.107 208.447,123.326C208.373,123.433 208.27,123.521 208.175,123.611C208.075,123.707 207.961,123.789 207.869,123.89C207.728,124.045 207.712,124.2 207.823,124.379C207.904,124.509 208.007,124.627 208.105,124.747C208.619,125.376 209.157,125.984 209.759,126.532C209.924,126.683 210.095,126.826 210.306,126.91C210.492,126.984 210.568,126.957 210.701,126.807C210.842,126.649 210.993,126.498 211.146,126.35C211.359,126.144 211.611,126.093 211.895,126.178C212.51,126.363 213.124,126.545 213.739,126.728C213.891,126.774 213.984,126.883 214.046,127.023C214.142,127.241 214.16,127.474 214.154,127.708C214.141,128.118 214.01,128.482 213.715,128.774C213.485,129.002 213.201,129.13 212.894,129.212C212.619,129.286 212.339,129.319 212.117,129.316ZM212.332,124.873C212.328,124.966 212.327,125.037 212.32,125.106C212.3,125.321 212.064,125.49 211.859,125.438C211.714,125.402 211.623,125.279 211.629,125.119C211.639,124.875 211.621,124.635 211.54,124.405C211.298,123.716 210.814,123.31 210.095,123.187C209.968,123.165 209.836,123.165 209.707,123.164C209.532,123.162 209.425,123.109 209.372,122.983C209.317,122.853 209.353,122.693 209.463,122.584C209.533,122.515 209.618,122.474 209.717,122.469C210.334,122.441 210.901,122.587 211.395,122.97C211.903,123.364 212.199,123.885 212.296,124.519C212.315,124.644 212.322,124.77 212.332,124.873ZM209.975,121.668C209.903,121.668 209.83,121.664 209.758,121.669C209.522,121.686 209.36,121.491 209.424,121.262C209.467,121.108 209.603,120.987 209.763,120.978C210.691,120.922 211.548,121.137 212.303,121.689C213.124,122.292 213.605,123.109 213.774,124.112C213.824,124.41 213.833,124.709 213.82,125.008C213.811,125.218 213.632,125.385 213.425,125.382C213.256,125.379 213.129,125.251 213.126,125.083C213.123,124.903 213.129,124.723 213.115,124.544C213.014,123.278 212.196,122.233 211.021,121.836C210.682,121.721 210.332,121.668 209.975,121.668ZM215.322,124.601C215.322,124.725 215.327,124.849 215.321,124.973C215.31,125.199 215.074,125.373 214.857,125.32C214.716,125.286 214.627,125.167 214.628,125.015C214.629,124.829 214.636,124.643 214.628,124.457C214.536,122.509 213.276,120.867 211.386,120.334C210.873,120.189 210.349,120.139 209.817,120.163C209.674,120.17 209.557,120.129 209.495,119.994C209.43,119.854 209.463,119.723 209.558,119.608C209.631,119.521 209.727,119.475 209.839,119.469C210.882,119.418 211.871,119.612 212.781,120.134C214.029,120.85 214.816,121.918 215.173,123.307C215.282,123.731 215.328,124.164 215.322,124.601Z" style="fill:white;fill-rule:nonzero;"/>
        </g>
    </g>
</svg>
